<svg width="69" height="79" viewBox="0 0 69 79" fill="none" xmlns="http://www.w3.org/2000/svg">
<g clip-path="url(#clip0_367_571)">
<path d="M34.1134 0.498837C34.9841 -0.569569 35.5592 0.355076 36.2032 0.805963C35.4212 1.44309 36.259 1.73714 36.5252 2.07694C43.6127 11.1502 50.7167 20.2104 57.8174 29.2707C57.8141 29.385 57.8141 29.4994 57.8108 29.6137C44.2962 32.979 30.7881 36.3672 17.2637 39.6868C14.3688 40.3958 11.5299 41.3825 8.5332 41.6635C8.5792 40.9807 8.98665 40.4416 9.32837 39.8992C16.1662 29.1204 23.0467 18.3677 29.855 7.566C31.3204 5.24295 33.0488 3.06367 34.1134 0.498837Z" fill="#F5D547"/>
<path d="M34.1132 0.498901C33.0453 3.06373 31.3202 5.24302 29.8547 7.56933C23.0498 18.3678 16.1693 29.1204 9.33145 39.8992C8.98973 40.4384 8.58228 40.9775 8.53628 41.6636C8.45742 41.6963 8.37856 41.7289 8.2997 41.7583C7.62939 41.497 7.57682 40.8435 7.38624 40.2946C5.94048 36.1419 4.521 31.9826 3.07195 27.8298C2.25378 25.4872 2.28006 32.4792 1.44218 30.1398C1.23517 35.7498 0.35128 31.9728 0.361137 37.5174C0.374281 44.5845 0.403853 51.655 0.426854 58.7221C0.39071 58.928 0.354566 59.1306 0.318422 59.3364C-0.154738 58.8267 0.0489836 58.1961 0.0489836 57.6211C0.0358402 45.5549 0.0522694 33.4921 0.0161253 21.4259C0.0128394 20.3314 0.285563 19.6191 1.28117 19.0506C11.9733 12.944 22.6423 6.80152 33.3246 0.678603C33.5513 0.551178 33.8503 0.554445 34.1132 0.498901Z" fill="#4D4A4F"/>
<path d="M34.8329 78.9728C34.4221 79.0675 34.0935 78.9401 33.8372 78.6101C33.8767 78.1233 33.5349 77.8129 33.2885 77.4666C28.8264 71.2064 24.3609 64.9496 19.902 58.6861C16.0116 53.22 11.9503 47.8714 8.25049 42.2712C10.0084 42.6274 11.4082 43.7154 12.9492 44.5191C21.8965 49.1946 30.8701 53.8179 39.7715 58.5751C41.973 59.7513 44.3552 60.6367 46.3201 62.2344C46.2018 62.5285 46.1361 62.8585 45.9554 63.1133C42.8306 67.5438 39.6729 71.9481 36.5809 76.4014C36.0848 77.1137 35.1351 77.6234 35.2863 78.7081C35.2863 78.7081 35.2469 78.6918 35.2436 78.6918C35.1056 78.78 34.9676 78.878 34.8329 78.9728Z" fill="#F5D547"/>
<path d="M8.2472 42.2679C11.947 47.8681 16.0083 53.2167 19.8988 58.6829C24.3576 64.9463 28.8231 71.2031 33.2852 77.4633C33.5349 77.8129 33.8734 78.12 33.834 78.6068C25.2382 73.6994 16.6359 68.7984 8.04676 63.8779C5.45424 62.3912 2.89458 60.8523 0.321777 59.3363C0.357921 59.1305 0.394066 58.9279 0.43021 58.7221C1.71826 55.9318 2.95044 53.1252 4.29435 50.361C5.62839 47.6165 6.53857 44.6694 8.2472 42.1013C8.2472 42.1569 8.25706 42.2124 8.2472 42.2679Z" fill="#2E2532"/>
<path d="M57.8109 29.6137C57.8142 29.4993 57.8142 29.385 57.8175 29.2706C57.9292 29.2739 58.0442 29.2772 58.1559 29.2804C58.2019 29.5974 58.1986 29.9372 58.307 30.2312C60.8831 37.1906 63.4297 44.163 66.0813 51.0962C67.0046 53.5107 67.6322 56.0494 68.94 58.3169C69.0057 58.8887 69.1766 59.5062 68.3387 59.6892C68.1744 59.4441 67.9378 59.3069 67.6519 59.3461C64.0145 59.8329 60.3903 60.4047 56.743 60.8001C53.4703 61.1562 50.2436 61.9109 46.9282 61.9077C46.9381 61.019 47.3061 60.2315 47.5887 59.4115C51.0026 49.4821 54.4068 39.5463 57.8109 29.6137Z" fill="#F5D547"/>
<path d="M58.0001 29.5C58.1118 29.5033 57.8884 29.4967 58.0001 29.5C50.8994 20.4398 43.5708 11.2054 36.4833 2.13209C36.2171 1.79229 34.0189 0.825169 35.0046 0.00834463C35.1582 0.00223966 35.4868 0.165601 35.6618 0.335074C46.2166 6.42879 57.8093 13.2679 68.3229 19.3344C68.6417 19.5174 69.0557 19.6481 68.9341 20.161C66.6504 22.1704 64.4227 24.2484 62.0569 26.1565C60.7655 27.1988 59.6036 28.84 58.0001 29.5Z" fill="#4D4A4F"/>
<path d="M58.1558 29.2805C59.7592 28.6205 60.7548 27.1927 62.0495 26.1504C64.4186 24.2456 66.6431 22.1643 68.9267 20.1549C68.93 32.8745 68.9366 45.5974 68.9399 58.3169C67.6321 56.0494 67.0045 53.5107 66.0812 51.0962C63.4295 44.163 60.883 37.1906 58.3069 30.2313C58.1985 29.9372 58.2018 29.5974 58.1558 29.2805Z" fill="#2E2532"/>
<path d="M46.928 61.9077C50.2401 61.9077 53.4701 61.1562 56.7428 60.8001C60.3901 60.4014 64.0143 59.8329 67.6517 59.3461C67.9409 59.3069 68.1775 59.4441 68.3385 59.6892C64.8588 62.0155 61.1425 63.9432 57.5281 66.0408C50.5194 70.1119 43.4976 74.1502 36.4725 78.1952C36.1012 78.4075 35.6806 78.535 35.283 78.7048C35.1352 77.6201 36.0848 77.1137 36.5809 76.3981C39.6729 71.9481 42.8306 67.5405 45.9554 63.11C46.1328 62.8585 46.2018 62.5252 46.3201 62.2311C46.5206 62.1233 46.7243 62.0155 46.928 61.9077Z" fill="#CBB241" fill-opacity="0.97"/>
<path d="M34.833 78.9727C34.971 78.878 35.1057 78.7832 35.2437 78.6885C35.1057 78.7832 34.971 78.878 34.833 78.9727Z" fill="#EF777C"/>
<path d="M48.0002 62C47.7902 62.1091 47.0002 62.5 46.5002 62.5C44.5002 61 42.7678 60.4871 40.5016 59.2968C31.3251 54.4826 22.0706 49.804 12.8501 45.0725C11.2613 44.2592 9.81529 43.3571 8.00301 43C8.01318 42.9438 8.01619 42.6853 8.01619 42.6291C8.02974 42.5134 7.98953 42.1157 8.00308 42C8.00308 41.8347 8.42172 41.5331 8.50301 41.5C11.5923 41.2156 14.0187 40.2208 17.003 39.5C30.9457 36.1407 46.0705 32.4056 60.003 29C56.4936 39.0515 52.0832 50.0983 48.5637 60.1466C48.2724 60.9765 48.0104 61.104 48.0002 62Z" fill="#2E2532"/>
<path d="M8.29658 41.7583C8.28343 41.8726 8.27029 41.987 8.25715 42.1014C6.54852 44.6695 5.63834 47.6166 4.3043 50.3611C2.96039 53.1252 1.60991 56.5461 0.321869 59.3364C0.197008 59.0521 0.0590029 58.8561 0.0688604 57.621C0.105005 53.367 0.0688604 43.4932 0.059003 37.6023C0.0458596 32.0544 -0.095431 26.1177 0.111576 20.5045C0.946177 22.8439 2.25394 25.4871 3.06882 27.8298C4.51459 31.9825 5.93735 36.1418 7.38312 40.2945C7.5737 40.8434 7.62627 41.4969 8.29658 41.7583Z" fill="#CBB241"/>
</g>
<defs>
<clipPath id="clip0_367_571">
<rect width="69" height="79" fill="white"/>
</clipPath>
</defs>
</svg>
